<!--
Copyright (C) 2009/2010/2011 Ulrich Apel.
This work is distributed under the conditions of the Creative Commons
Attribution-Share Alike 3.0 Licence. This means you are free:
* to Share - to copy, distribute and transmit the work
* to Remix - to adapt the work

Under the following conditions:
* Attribution. You must attribute the work by stating your use of KanjiVG in
  your own copyright header and linking to KanjiVG's website
  (http://kanjivg.tagaini.net)
* Share Alike. If you alter, transform, or build upon this work, you may
  distribute the resulting work only under the same or similar license to this
  one.

See http://creativecommons.org/licenses/by-sa/3.0/ for more details.
--><!DOCTYPE svg PUBLIC "-//W3C//DTD SVG 1.0//EN" "http://www.w3.org/TR/2001/REC-SVG-20010904/DTD/svg10.dtd"><svg xmlns="http://www.w3.org/2000/svg" width="109" height="109" viewBox="0 0 109 109">
<!-- U+7C79 籹 (조립된 커스텀 SVG) -->
<g xmlns:kvg="http://kanjivg.tagaini.net" id="kvg:StrokePaths_07c79" style="fill:none;stroke:#000000;stroke-width:3;stroke-linecap:round;stroke-linejoin:round;">
  <!-- 왼쪽 편: 米 (from 07c92 粒 or 07c94 粔) -->
  <g xmlns:kvg="http://kanjivg.tagaini.net" id="kvg:07c79-g1" kvg:element="米" kvg:position="left" kvg:radical="general">
    <path xmlns:kvg="http://kanjivg.tagaini.net" id="kvg:07c79-s1" kvg:type="㇔" d="M15.44,27.14c2.89,1.96,7.28,7.6,8.08,10.63"/>
    <path xmlns:kvg="http://kanjivg.tagaini.net" id="kvg:07c79-s2" kvg:type="㇒" d="M43.26,23.47c0.05,0.73,-0.08,1.4,-0.38,2.06c-1.25,3.47,-2.75,6.59,-6.32,11.36"/>
    <path xmlns:kvg="http://kanjivg.tagaini.net" id="kvg:07c79-s3" kvg:type="㇐" d="M12.6,47.95c1.15,0.3,3.01,0.22,4.67,0.01c5.96,-0.75,15.71,-2.29,23.36,-3.23c1.39,-0.17,3.13,-0.45,4.41,-0.15"/>
    <path xmlns:kvg="http://kanjivg.tagaini.net" id="kvg:07c79-s4" kvg:type="㇑" d="M28.77,15.46c0.91,0.91,1.13,2.04,1.13,3.52c0,0.85,0,62.37,0,66.82"/>
    <path xmlns:kvg="http://kanjivg.tagaini.net" id="kvg:07c79-s5" kvg:type="㇒" d="M29.9,47.96c0,1.29,-0.5,2.77,-1.12,4.02C23.94,61.64,17.2,71.21,9,78"/>
    <path xmlns:kvg="http://kanjivg.tagaini.net" id="kvg:07c79-s6" kvg:type="㇔/㇏" d="M32.5,53.25c4.71,3.42,7.91,7.28,10.25,12.75"/>
  </g>
  <!-- 오른쪽 방: 女 (from 06c5d 汝) -->
  <g xmlns:kvg="http://kanjivg.tagaini.net" id="kvg:07c79-g2" kvg:element="女" kvg:position="right">
    <path xmlns:kvg="http://kanjivg.tagaini.net" id="kvg:07c79-s7" kvg:type="㇛" d="M65.4,12.87c0.33,1.48,0.1,3.34,-0.15,5.17c-1.29,8.98,-7.88,29.63,-11.98,39.96c-0.89,2.24,-0.19,2.63,0.48,2.7c10.01,0.98,26.14,13.03,31.09,26.3"/>
    <path xmlns:kvg="http://kanjivg.tagaini.net" id="kvg:07c79-s8" kvg:type="㇒" d="M79.39,32.11c0.11,1.31,0.18,4.48,-0.22,6.39c-3.15,15.34,-12.16,37.09,-34.56,48.51"/>
    <path xmlns:kvg="http://kanjivg.tagaini.net" id="kvg:07c79-s9" kvg:type="㇐" d="M43.13,39.73c1.38,0.56,2.87,0.94,3.55,0.85c14.05,-1.77,27.99,-3.98,41.41,-4.23c1.1,-0.02,3.03,0.35,3.93,0.98"/>
  </g>
</g>
<g xmlns:kvg="http://kanjivg.tagaini.net" id="kvg:StrokeNumbers_07c79" style="font-size:8;fill:#808080">
  <text transform="matrix(1 0 0 1 8.50 26.50)">1</text>
  <text transform="matrix(1 0 0 1 34.50 23.50)">2</text>
  <text transform="matrix(1 0 0 1 3.75 48.13)">3</text>
  <text transform="matrix(1 0 0 1 19.50 14.50)">4</text>
  <text transform="matrix(1 0 0 1 18.75 57.50)">5</text>
  <text transform="matrix(1 0 0 1 35.50 54.50)">6</text>
  <text transform="matrix(1 0 0 1 58.78 12.90)">7</text>
  <text transform="matrix(1 0 0 1 75.10 26.77)">8</text>
  <text transform="matrix(1 0 0 1 41.30 36.60)">9</text>
</g>
</svg>